<svg id="icon-importance" xmlns="http://www.w3.org/2000/svg" width="16" height="16" viewBox="0 0 16 16">
  <path id="Path" d="M0,0H16V16H0Z" fill="none"/>
  <path id="Path-2" data-name="Path" d="M0,1.333A1.333,1.333,0,1,0,1.333,0,1.333,1.333,0,0,0,0,1.333" transform="translate(6.667 2)" fill="none" stroke="#000" stroke-linecap="round" stroke-linejoin="round" stroke-miterlimit="10" stroke-width="1"/>
  <path id="Path-3" data-name="Path" d="M0,1.333A1.333,1.333,0,1,0,1.333,0,1.333,1.333,0,0,0,0,1.333" transform="translate(2 11.333)" fill="none" stroke="#000" stroke-linecap="round" stroke-linejoin="round" stroke-miterlimit="10" stroke-width="1"/>
  <path id="Path-4" data-name="Path" d="M0,1.333A1.333,1.333,0,1,0,1.333,0,1.333,1.333,0,0,0,0,1.333" transform="translate(11.333 11.333)" fill="none" stroke="#000" stroke-linecap="round" stroke-linejoin="round" stroke-miterlimit="10" stroke-width="1"/>
  <path id="Path-5" data-name="Path" d="M0,3,3.667,0,7.333,3" transform="translate(4.333 8.667)" fill="none" stroke="#000" stroke-linecap="round" stroke-linejoin="round" stroke-miterlimit="10" stroke-width="1"/>
  <path id="Path-6" data-name="Path" d="M.333,0V4" transform="translate(7.667 4.667)" fill="none" stroke="#000" stroke-linecap="round" stroke-linejoin="round" stroke-miterlimit="10" stroke-width="1"/>
</svg>
