<svg id="icon-invoiceid" xmlns="http://www.w3.org/2000/svg" width="16" height="16" viewBox="0 0 16 16">
  <rect id="Rectangle" width="16" height="16" fill="#d8d8d8" opacity="0"/>
  <g id="Group_89" data-name="Group 89" transform="translate(2.5 1)">
    <path id="Path" d="M3.143,0H1.571A1.564,1.564,0,0,0,0,1.556v9.333a1.564,1.564,0,0,0,1.571,1.556H9.429A1.564,1.564,0,0,0,11,10.889V1.556A1.564,1.564,0,0,0,9.429,0H7.857" transform="translate(0 1.556)" fill="none" stroke="#2f3059" stroke-linecap="round" stroke-linejoin="round" stroke-miterlimit="10" stroke-width="1"/>
    <path id="Path-2" data-name="Path" d="M0,1.556A1.564,1.564,0,0,1,1.571,0H3.143A1.564,1.564,0,0,1,4.714,1.556h0A1.564,1.564,0,0,1,3.143,3.111H1.571A1.564,1.564,0,0,1,0,1.556Z" transform="translate(3.143)" fill="none" stroke="#2f3059" stroke-linecap="round" stroke-linejoin="round" stroke-miterlimit="10" stroke-width="1"/>
    <path id="Path-3" data-name="Path" d="M0,.389H4.714" transform="translate(3.143 6.611)" fill="none" stroke="#2f3059" stroke-linecap="round" stroke-linejoin="round" stroke-miterlimit="10" stroke-width="1"/>
    <path id="Path-4" data-name="Path" d="M0,.389H4.714" transform="translate(3.143 9.722)" fill="none" stroke="#2f3059" stroke-linecap="round" stroke-linejoin="round" stroke-miterlimit="10" stroke-width="1"/>
  </g>
</svg>
