<svg id="icon-status" xmlns="http://www.w3.org/2000/svg" width="16" height="16" viewBox="0 0 16 16">
  <path id="Path" d="M0,0H16V16H0Z" fill="none"/>
  <path id="Path-2" data-name="Path" d="M1.947,0A6,6,0,0,0,0,1.3" transform="translate(3.76 2.46)" fill="none" stroke="#000" stroke-linecap="round" stroke-linejoin="round" stroke-miterlimit="10" stroke-width="1"/>
  <path id="Path-3" data-name="Path" d="M.563,0A6,6,0,0,0,.1,2.293" transform="translate(1.897 5.707)" fill="none" stroke="#000" stroke-linecap="round" stroke-linejoin="round" stroke-miterlimit="10" stroke-width="1"/>
  <path id="Path-4" data-name="Path" d="M0,0A6,6,0,0,0,1.3,1.947" transform="translate(2.46 10.293)" fill="none" stroke="#000" stroke-linecap="round" stroke-linejoin="round" stroke-miterlimit="10" stroke-width="1"/>
  <path id="Path-5" data-name="Path" d="M0,.1a6,6,0,0,0,2.293.46" transform="translate(5.707 13.437)" fill="none" stroke="#000" stroke-linecap="round" stroke-linejoin="round" stroke-miterlimit="10" stroke-width="1"/>
  <path id="Path-6" data-name="Path" d="M0,1.3A6,6,0,0,0,1.947,0" transform="translate(10.293 12.24)" fill="none" stroke="#000" stroke-linecap="round" stroke-linejoin="round" stroke-miterlimit="10" stroke-width="1"/>
  <path id="Path-7" data-name="Path" d="M.1,2.293A6,6,0,0,0,.563,0" transform="translate(13.437 8)" fill="none" stroke="#000" stroke-linecap="round" stroke-linejoin="round" stroke-miterlimit="10" stroke-width="1"/>
  <path id="Path-8" data-name="Path" d="M1.3,1.947A6,6,0,0,0,0,0" transform="translate(12.24 3.76)" fill="none" stroke="#000" stroke-linecap="round" stroke-linejoin="round" stroke-miterlimit="10" stroke-width="1"/>
  <path id="Path-9" data-name="Path" d="M2.293.563A6,6,0,0,0,0,.1" transform="translate(8 1.897)" fill="none" stroke="#000" stroke-linecap="round" stroke-linejoin="round" stroke-miterlimit="10" stroke-width="1"/>
</svg>
