<svg id="icon-logicpilot" xmlns="http://www.w3.org/2000/svg" xmlns:xlink="http://www.w3.org/1999/xlink" width="16" height="16" viewBox="0 0 16 16">
  <defs>
    <linearGradient id="linear-gradient" y1="0.5" x2="1" y2="0.5" gradientUnits="objectBoundingBox">
      <stop offset="0" stop-color="#708dff"/>
      <stop offset="1" stop-color="#ff81f0"/>
    </linearGradient>
  </defs>
  <g id="Group_38" data-name="Group 38">
    <g id="Group_25" data-name="Group 25">
      <g id="Group_88" data-name="Group 88">
        <path id="Path" d="M0,0H16V16H0Z" fill="none"/>
        <path id="Path-2" data-name="Path" d="M0,2.074A2.074,2.074,0,0,1,2.074,4.148,2.074,2.074,0,0,1,4.148,2.074,2.074,2.074,0,0,1,2.074,0,2.074,2.074,0,0,1,0,2.074Z" transform="translate(10.074 10.074)" stroke="#707070" stroke-linecap="round" stroke-linejoin="round" stroke-miterlimit="10" stroke-width="0.5" fill="url(#linear-gradient)"/>
        <path id="Path-3" data-name="Path" d="M0,2.074A2.074,2.074,0,0,1,2.074,4.148,2.074,2.074,0,0,1,4.148,2.074,2.074,2.074,0,0,1,2.074,0,2.074,2.074,0,0,1,0,2.074Z" transform="translate(1.185 1.778)" stroke="#707070" stroke-linecap="round" stroke-linejoin="round" stroke-miterlimit="10" stroke-width="0.5" fill="url(#linear-gradient)"/>
        <path id="Path-4" data-name="Path" d="M5.926,11.852a5.926,5.926,0,0,1,5.926-5.926A5.926,5.926,0,0,1,5.926,0,5.926,5.926,0,0,1,0,5.926,5.926,5.926,0,0,1,5.926,11.852Z" transform="translate(1.778 1.778)" stroke="#707070" stroke-linecap="round" stroke-linejoin="round" stroke-miterlimit="10" stroke-width="1" fill="url(#linear-gradient)"/>
      </g>
    </g>
  </g>
</svg>
