<svg xmlns="http://www.w3.org/2000/svg" width="12.636" height="12.636" viewBox="0 0 12.636 12.636">
  <g id="icon-activity" transform="translate(0.5 0.136)">
    <path id="Path" d="M0,.364H4.364" fill="none" stroke="#000" stroke-linecap="round" stroke-linejoin="round" stroke-miterlimit="10" stroke-width="1"/>
    <path id="Path-2" data-name="Path" d="M0,.364H4.364" transform="translate(7.273)" fill="none" stroke="#000" stroke-linecap="round" stroke-linejoin="round" stroke-miterlimit="10" stroke-width="1"/>
    <path id="Path-3" data-name="Path" d="M0,1.455A1.455,1.455,0,0,1,1.455,0H2.909A1.455,1.455,0,0,1,4.364,1.455V7.273A1.455,1.455,0,0,1,2.909,8.727H1.455A1.455,1.455,0,0,1,0,7.273Z" transform="translate(0 3.273)" fill="#d8d8d8" stroke="#3e40db" stroke-linecap="round" stroke-linejoin="round" stroke-miterlimit="10" stroke-width="1"/>
    <path id="Path-4" data-name="Path" d="M0,1.455A1.455,1.455,0,0,1,1.455,0H2.909A1.455,1.455,0,0,1,4.364,1.455V2.909A1.455,1.455,0,0,1,2.909,4.364H1.455A1.455,1.455,0,0,1,0,2.909Z" transform="translate(7.273 3.273)" fill="#d8d8d8" stroke="#3e40db" stroke-linecap="round" stroke-linejoin="round" stroke-miterlimit="10" stroke-width="1"/>
  </g>
</svg>
